<svg width="21" height="29" viewBox="0 0 21 29" fill="none" xmlns="http://www.w3.org/2000/svg">
<path d="M12.1395 16.9506L11.661 17.4264C12.0677 18.2434 12.708 19.3663 13.6426 20.6633L14.7454 19.5605C15.1228 19.1831 15.1343 18.5821 14.7712 18.219L13.479 16.9268C13.1165 16.5643 12.5175 16.5752 12.1395 16.9506Z" fill="#101010"/>
<path d="M16.4853 3.40993L16.4337 6.09309L17.8011 4.72573L17.8526 2.04257L16.4853 3.40993Z" fill="#101010"/>
<path d="M19.235 0.660168L19.22 0.67521L19.1684 3.35837L20.5508 1.97598L20.5621 0.61992L19.235 0.660168Z" fill="#101010"/>
<path d="M13.7656 6.1296L13.7511 6.11512L11.068 6.16667L10.3843 6.85035L14.3317 10.7978L15.0154 10.1141L15.1179 4.77728L13.7656 6.1296Z" fill="#101010"/>
<path d="M7.01745 7.58558L1.67381 12.9292C0.120496 14.4825 -0.399594 16.8776 0.641818 18.7244C1.78703 20.753 3.99853 21.4481 5.97143 20.8818C6.4697 20.7388 6.98105 20.963 7.13739 21.4461C7.60573 22.8962 8.56564 25.1113 10.4938 27.4661C11.204 28.3336 12.5217 28.3974 13.3463 27.5729L15.9265 24.9927C16.4734 24.4458 16.599 23.5609 16.1185 22.9915C15.8392 22.6602 15.4419 22.5009 15.0415 22.5079L14.7705 22.5131C14.1735 22.5246 13.6202 22.2503 13.2657 21.7837C11.7837 19.834 10.9392 18.2101 10.5104 17.2507L13.5965 14.1646C14.352 13.4092 14.375 12.2084 13.648 11.4815L9.70061 7.53403C8.97363 6.80705 7.77291 6.83012 7.01745 7.58558Z" fill="#101010"/>
</svg>
