<svg width="33" height="27" viewBox="0 0 33 27" fill="none" xmlns="http://www.w3.org/2000/svg">
<path d="M1.51789 2.32349H4.6208L8.13691 14.4108V17.3793C10.3127 18.1412 11.8835 20.1641 11.8835 22.5592C11.8835 23.2074 11.7484 23.8206 11.5384 24.3988H23.5312C23.3212 23.8206 23.1858 23.2074 23.1858 22.5592C23.1858 20.1893 24.7228 18.181 26.8629 17.4006C26.6897 16.1653 25.7272 15.1658 24.4325 15.0247L9.80167 13.4347L6.22799 1.15122C6.11262 0.755995 5.74503 0.483887 5.32695 0.483887H1.51789C1.00029 0.483887 0.581238 0.895403 0.581238 1.40369C0.581238 1.91198 1.00029 2.32349 1.51789 2.32349ZM14.6935 18.88H20.3759C20.8935 18.88 21.3125 19.2915 21.3125 19.7998C21.3125 20.3081 20.8935 20.7196 20.3759 20.7196H14.6935C14.1759 20.7196 13.7568 20.3081 13.7568 19.7998C13.7568 19.2915 14.1759 18.88 14.6935 18.88Z" fill="#101010"/>
<path d="M6.2636 18.88C4.19443 18.88 2.51699 20.5272 2.51699 22.5592C2.51699 24.5911 4.19443 26.2384 6.2636 26.2384C8.33278 26.2384 10.0102 24.5911 10.0102 22.5592C10.0102 20.5272 8.33278 18.88 6.2636 18.88ZM6.2636 23.479C5.74625 23.479 5.32695 23.0672 5.32695 22.5592C5.32695 22.0511 5.74625 21.6394 6.2636 21.6394C6.78096 21.6394 7.20026 22.0511 7.20026 22.5592C7.20026 23.0672 6.78096 23.479 6.2636 23.479Z" fill="#101010"/>
<path d="M15.0025 8.66511C14.2125 8.58152 13.4129 8.83039 12.8185 9.35329C12.2248 9.87499 11.8835 10.6252 11.8835 11.4082V11.8109L23.1858 13.038V11.8169C23.1858 10.4094 22.1111 9.23089 20.6522 9.07112L15.0025 8.66511Z" fill="#101010"/>
<path d="M28.8057 18.88C26.7366 18.88 25.0591 20.5272 25.0591 22.5592C25.0591 24.5911 26.7366 26.2384 28.8057 26.2384C30.8749 26.2384 32.5524 24.5911 32.5524 22.5592C32.5524 20.5272 30.8749 18.88 28.8057 18.88ZM28.8057 23.479C28.2884 23.479 27.8691 23.0672 27.8691 22.5592C27.8691 22.0511 28.2884 21.6394 28.8057 21.6394C29.3231 21.6394 29.7424 22.0511 29.7424 22.5592C29.7424 23.0672 29.3231 23.479 28.8057 23.479Z" fill="#101010"/>
</svg>
