<svg width="35" height="23" viewBox="0 0 35 23" fill="none" xmlns="http://www.w3.org/2000/svg">
<path d="M4.71561 22.3202C4.40561 22.3202 4.08561 22.3202 3.71561 22.2702C3.26852 22.2342 2.84133 22.0699 2.48532 21.7971C2.12932 21.5242 1.85963 21.1544 1.70864 20.7321C1.55765 20.3097 1.53177 19.8527 1.63411 19.416C1.73646 18.9793 1.96268 18.5815 2.28561 18.2702C2.86804 17.7513 3.32604 17.1079 3.62555 16.3877C3.92506 15.6675 4.05838 14.889 4.0156 14.1102C2.43939 13.2865 1.20824 11.9281 0.542997 10.2787C-0.122245 8.62939 -0.178045 6.79696 0.385605 5.11018C0.744522 4.05227 1.35143 3.09562 2.15561 2.32018C3.15071 1.28428 4.42101 0.554189 5.81702 0.215818C7.21302 -0.122553 8.67663 -0.0551206 10.0356 0.410181C11.5078 0.905538 12.8146 1.79804 13.8116 2.98917C14.8086 4.1803 15.4571 5.62374 15.6856 7.16018C16.1779 9.92197 15.7455 12.769 14.4556 15.2602V15.3402C11.3756 20.1802 8.43561 22.3202 4.71561 22.3202ZM4.34561 19.8102C6.55561 19.9202 9.0456 19.1702 12.2656 14.0502C13.2765 12.0792 13.6271 9.83555 13.2656 7.65018C13.1161 6.54732 12.6629 5.50776 11.9565 4.64773C11.2501 3.78769 10.3184 3.14108 9.2656 2.78018C8.34986 2.458 7.36013 2.40937 6.4172 2.64021C5.47428 2.87106 4.61895 3.3714 3.95561 4.08018C3.43313 4.59288 3.04206 5.22407 2.81561 5.92018C2.41703 7.12241 2.48958 8.4311 3.01858 9.58192C3.54758 10.7327 4.49362 11.6399 5.66561 12.1202C5.85771 12.1971 6.02771 12.3205 6.16036 12.4793C6.29301 12.6382 6.38415 12.8274 6.42561 13.0302C6.66421 14.2442 6.59919 15.4983 6.23632 16.6812C5.87345 17.864 5.22397 18.9388 4.34561 19.8102ZM23.4056 22.3202C23.0856 22.3202 22.7756 22.3202 22.4056 22.2702C21.9585 22.2342 21.5313 22.0699 21.1753 21.7971C20.8193 21.5242 20.5496 21.1544 20.3986 20.7321C20.2476 20.3097 20.2218 19.8527 20.3241 19.416C20.4265 18.9793 20.6527 18.5815 20.9756 18.2702C21.558 17.7513 22.016 17.1079 22.3155 16.3877C22.6151 15.6675 22.7484 14.889 22.7056 14.1102C21.1308 13.2849 19.9009 11.9264 19.2359 10.2776C18.5709 8.62873 18.514 6.79708 19.0756 5.11018C19.429 4.05668 20.025 3.10098 20.8156 2.32018C21.8131 1.28154 23.0869 0.54986 24.4867 0.211438C25.8864 -0.126983 27.3538 -0.0580243 28.7156 0.410181C30.189 0.903544 31.4969 1.79545 32.4943 2.98694C33.4916 4.17844 34.1393 5.62294 34.3656 7.16018C34.8579 9.92197 34.4255 12.769 33.1356 15.2602C33.1374 15.2868 33.1374 15.3135 33.1356 15.3402C30.0656 20.1802 27.1156 22.3202 23.4056 22.3202ZM23.0256 19.8102C25.2456 19.9202 27.7256 19.1702 30.9556 14.0502C31.9748 12.0819 32.3258 9.8355 31.9556 7.65018C31.9603 7.61701 31.9603 7.58335 31.9556 7.55018C31.7998 6.46126 31.3427 5.43757 30.6359 4.5947C29.9291 3.75183 29.0007 3.12333 27.9556 2.78018C27.0399 2.458 26.0501 2.40937 25.1072 2.64021C24.1643 2.87106 23.309 3.3714 22.6456 4.08018C22.1299 4.59286 21.7486 5.22487 21.5356 5.92018C21.137 7.12241 21.2096 8.4311 21.7386 9.58192C22.2676 10.7327 23.2136 11.6399 24.3856 12.1202C24.5754 12.1992 24.7429 12.3234 24.8736 12.482C25.0044 12.6406 25.0943 12.8288 25.1356 13.0302C25.3722 14.2466 25.3034 15.5028 24.9351 16.6861C24.5669 17.8694 23.9108 18.9428 23.0256 19.8102Z" fill="#101010"/>
<path d="M4.71561 22.3202C4.40561 22.3202 4.08561 22.3202 3.71561 22.2702C3.26852 22.2342 2.84133 22.0699 2.48532 21.7971C2.12932 21.5242 1.85963 21.1544 1.70864 20.7321C1.55765 20.3097 1.53177 19.8527 1.63411 19.416C1.73646 18.9793 1.96268 18.5815 2.28561 18.2702C2.86804 17.7513 3.32604 17.1079 3.62555 16.3877C3.92506 15.6675 4.05838 14.889 4.0156 14.1102C2.43939 13.2865 1.20824 11.9281 0.542997 10.2787C-0.122245 8.62939 -0.178045 6.79696 0.385605 5.11018C0.744522 4.05227 1.35143 3.09562 2.15561 2.32018C3.15071 1.28428 4.42101 0.554189 5.81702 0.215818C7.21302 -0.122553 8.67663 -0.0551206 10.0356 0.410181C11.5078 0.905538 12.8146 1.79804 13.8116 2.98917C14.8086 4.1803 15.4571 5.62374 15.6856 7.16018C16.1779 9.92197 15.7455 12.769 14.4556 15.2602V15.3402C11.3756 20.1802 8.43561 22.3202 4.71561 22.3202ZM4.34561 19.8102C6.55561 19.9202 9.0456 19.1702 12.2656 14.0502C13.2765 12.0792 13.6271 9.83555 13.2656 7.65018C13.1161 6.54732 12.6629 5.50776 11.9565 4.64773C11.2501 3.78769 10.3184 3.14108 9.2656 2.78018C8.34986 2.458 7.36013 2.40937 6.4172 2.64021C5.47428 2.87106 4.61895 3.3714 3.95561 4.08018C3.43313 4.59288 3.04206 5.22407 2.81561 5.92018C2.41703 7.12241 2.48958 8.4311 3.01858 9.58192C3.54758 10.7327 4.49362 11.6399 5.66561 12.1202C5.85771 12.1971 6.02771 12.3205 6.16036 12.4793C6.29301 12.6382 6.38415 12.8274 6.42561 13.0302C6.66421 14.2442 6.59919 15.4983 6.23632 16.6812C5.87345 17.864 5.22397 18.9388 4.34561 19.8102ZM23.4056 22.3202C23.0856 22.3202 22.7756 22.3202 22.4056 22.2702C21.9585 22.2342 21.5313 22.0699 21.1753 21.7971C20.8193 21.5242 20.5496 21.1544 20.3986 20.7321C20.2476 20.3097 20.2218 19.8527 20.3241 19.416C20.4265 18.9793 20.6527 18.5815 20.9756 18.2702C21.558 17.7513 22.016 17.1079 22.3155 16.3877C22.6151 15.6675 22.7484 14.889 22.7056 14.1102C21.1308 13.2849 19.9009 11.9264 19.2359 10.2776C18.5709 8.62873 18.514 6.79708 19.0756 5.11018C19.429 4.05668 20.025 3.10098 20.8156 2.32018C21.8131 1.28154 23.0869 0.54986 24.4867 0.211438C25.8864 -0.126983 27.3538 -0.0580243 28.7156 0.410181C30.189 0.903544 31.4969 1.79545 32.4943 2.98694C33.4916 4.17844 34.1393 5.62294 34.3656 7.16018C34.8579 9.92197 34.4255 12.769 33.1356 15.2602C33.1374 15.2868 33.1374 15.3135 33.1356 15.3402C30.0656 20.1802 27.1156 22.3202 23.4056 22.3202ZM23.0256 19.8102C25.2456 19.9202 27.7256 19.1702 30.9556 14.0502C31.9748 12.0819 32.3258 9.8355 31.9556 7.65018C31.9603 7.61701 31.9603 7.58335 31.9556 7.55018C31.7998 6.46126 31.3427 5.43757 30.6359 4.5947C29.9291 3.75183 29.0007 3.12333 27.9556 2.78018C27.0399 2.458 26.0501 2.40937 25.1072 2.64021C24.1643 2.87106 23.309 3.3714 22.6456 4.08018C22.1299 4.59286 21.7486 5.22487 21.5356 5.92018C21.137 7.12241 21.2096 8.4311 21.7386 9.58192C22.2676 10.7327 23.2136 11.6399 24.3856 12.1202C24.5754 12.1992 24.7429 12.3234 24.8736 12.482C25.0044 12.6406 25.0943 12.8288 25.1356 13.0302C25.3722 14.2466 25.3034 15.5028 24.9351 16.6861C24.5669 17.8694 23.9108 18.9428 23.0256 19.8102Z" fill="#FA9100"/>
</svg>
