<svg width="80" height="56" viewBox="0 0 80 56" fill="none" xmlns="http://www.w3.org/2000/svg">
<path d="M27.5053 55.996H18.562C14.9437 55.996 12 53.0522 12 49.4339V6.56203C12 2.94372 14.9437 0 18.562 0H39.5605C41.3132 0 42.9611 0.68256 44.2005 1.92202L48.5752 6.2967C49.8147 7.53616 50.4972 9.18399 50.4972 10.9367V22.9867C50.4972 24.1947 49.5179 25.174 48.3099 25.174C47.1018 25.174 46.1225 24.1947 46.1225 22.9867V10.9367C46.1225 10.3525 45.8949 9.80323 45.4819 9.39004L41.1072 5.01536C40.694 4.60228 40.1447 4.37468 39.5605 4.37468H18.562C17.3559 4.37468 16.3747 5.35593 16.3747 6.56203V49.4339C16.3747 50.64 17.3559 51.6213 18.562 51.6213H27.5054C28.7135 51.6213 29.6928 52.6005 29.6928 53.8086C29.6928 55.0167 28.7134 55.996 27.5053 55.996Z" fill="#101010"/>
<path d="M35.1403 54.7145C33.7855 53.3598 33.4677 51.3072 34.3495 49.6071L37.5273 43.4812C37.8373 42.8834 38.236 42.3388 38.7122 41.8628L56.794 23.7809C59.3527 21.2224 63.5155 21.2224 66.0742 23.7809C68.6327 26.3394 68.6327 30.5025 66.0742 33.061L47.9923 51.1428C47.5162 51.6189 46.9717 52.0176 46.3738 52.3277L40.2479 55.5053C38.5472 56.3876 36.4945 56.0689 35.1403 54.7145ZM59.8873 26.8742L41.8055 44.9561C41.6468 45.1148 41.5139 45.2964 41.4106 45.4956L38.2329 51.6215L44.3596 48.4445C44.5588 48.3411 44.7403 48.2082 44.899 48.0496L62.9807 29.9677C63.8336 29.1148 63.8336 27.7272 62.9807 26.8742C62.1279 26.0215 60.7402 26.0214 59.8873 26.8742Z" fill="#101010"/>
<path d="M39.5606 20.9985H22.9368C21.7288 20.9985 20.7495 20.0192 20.7495 18.8111C20.7495 17.6031 21.7288 16.6238 22.9368 16.6238H39.5606C40.7687 16.6238 41.748 17.6031 41.748 18.8111C41.748 20.0192 40.7686 20.9985 39.5606 20.9985Z" fill="#101010"/>
<path d="M39.5606 29.7478H22.9368C21.7288 29.7478 20.7495 28.7686 20.7495 27.5605C20.7495 26.3524 21.7288 25.3732 22.9368 25.3732H39.5606C40.7687 25.3732 41.748 26.3524 41.748 27.5605C41.748 28.7686 40.7686 29.7478 39.5606 29.7478Z" fill="#101010"/>
<path d="M30.8113 38.4972H22.9368C21.7288 38.4972 20.7495 37.5179 20.7495 36.3099C20.7495 35.1018 21.7288 34.1225 22.9368 34.1225H30.8113C32.0193 34.1225 32.9986 35.1018 32.9986 36.3099C32.9986 37.5179 32.0192 38.4972 30.8113 38.4972Z" fill="#101010"/>
</svg>
