<svg width="80" height="56" viewBox="0 0 80 56" fill="none" xmlns="http://www.w3.org/2000/svg">
<path d="M78.3486 28.4661L65.0715 14.8797C64.6356 14.4334 64.0354 14.1816 63.4085 14.1816H54.9241V4.29219C54.9241 3.02629 53.8879 2 52.6097 2H9.6218C8.3436 2 7.30735 3.02629 7.30735 4.29219V11.1709H5.55546C4.27726 11.1709 3.24101 12.1972 3.24101 13.4631C3.24101 14.729 4.27726 15.7553 5.55546 15.7553H7.30735V20.3418H2.31445C1.03626 20.3418 0 21.3681 0 22.634C0 23.8999 1.03626 24.9262 2.31445 24.9262H7.30735V45.9772C7.30735 47.2431 8.3436 48.2694 9.6218 48.2694H14.5483C14.997 49.7486 15.8106 51.104 16.9444 52.2269C18.75 54.0153 21.1507 55 23.7042 55C26.2576 55 28.6582 54.0153 30.4639 52.2269C31.6113 51.0906 32.404 49.7345 32.845 48.2946H54.9473C55.3883 49.7345 56.181 51.0906 57.3284 52.2269C59.134 54.0153 61.5347 55 64.0881 55C66.6416 55 69.0421 54.0153 70.8479 52.2269C71.9952 51.0906 72.788 49.7345 73.229 48.2946H76.6855C77.9637 48.2946 79 47.2683 79 46.0024V30.0602C79 29.4652 78.7664 28.8936 78.3486 28.4661ZM71.2247 27.768H54.8592V18.766H62.4276L71.2247 27.768ZM11.9363 24.926H23.9827C25.2609 24.926 26.2971 23.8997 26.2971 22.6338C26.2971 21.3679 25.2609 20.3416 23.9827 20.3416H11.9363V15.7551H25.6804C26.9586 15.7551 27.9949 14.7288 27.9949 13.4629C27.9949 12.197 26.9586 11.1707 25.6804 11.1707H11.9363V6.58423H50.2951L50.2301 43.7099H33.0819C32.7308 41.9232 31.8583 40.218 30.4639 38.8369C28.6583 37.0485 26.2576 36.0638 23.7042 36.0638C21.1507 36.0638 18.7502 37.0485 16.9444 38.8369C15.5866 40.1816 14.6878 41.8596 14.3254 43.6847H11.9363V24.926ZM27.1908 48.9853C26.2595 49.9077 25.0211 50.4156 23.7042 50.4156C22.3872 50.4156 21.1489 49.9077 20.2175 48.9853C19.2862 48.0629 18.7733 46.8364 18.7733 45.532C18.7733 44.2275 19.2862 43.001 20.2175 42.0786C21.1489 41.1562 22.3872 40.6483 23.7042 40.6483C25.0211 40.6483 26.2595 41.1562 27.1908 42.0786C29.1134 43.9828 29.1134 47.0811 27.1908 48.9853ZM67.5745 48.9853C66.6431 49.9077 65.4047 50.4156 64.0878 50.4156C62.7709 50.4156 61.5325 49.9077 60.6012 48.9853C58.6786 47.0811 58.6786 43.983 60.6012 42.0788C61.5325 41.1564 62.7709 40.6484 64.0878 40.6484C65.4047 40.6484 66.6431 41.1564 67.5745 42.0788C68.5058 43.0012 69.0185 44.2276 69.0185 45.5322C69.0187 46.8364 68.5058 48.0629 67.5745 48.9853ZM73.4657 43.71C73.1146 41.9234 72.2421 40.2181 70.8476 38.837C69.042 37.0486 66.6413 36.0639 64.0878 36.0639C61.5344 36.0639 59.1338 37.0486 57.3281 38.837C56.0986 40.0548 55.2773 41.5248 54.859 43.0802V32.3524H74.3711V43.71H73.4657Z" fill="#101010"/>
</svg>
