<svg width="80" height="56" viewBox="0 0 80 56" fill="none" xmlns="http://www.w3.org/2000/svg">
<g clip-path="url(#clip0_447_7)">
<path d="M51.5105 30.2288L48.121 26.8392L57.0789 17.8814L58.239 19.0414C58.9902 19.7926 60.2543 19.6446 60.8058 18.7254L67.7662 7.1248C68.1536 6.47927 68.0518 5.65295 67.5194 5.12073L62.8791 0.480515C62.3469 -0.0518107 61.5205 -0.15342 60.875 0.233766L49.2744 7.19414C48.359 7.74342 48.2051 9.00757 48.9585 9.76095L50.1186 10.921L41.1606 19.8789L37.7711 16.4893C38.9641 12.0315 37.7472 7.18441 34.3727 3.80977C30.1516 -0.411215 23.8327 -1.07928 18.8911 1.58257C18.4345 1.82856 18.1212 2.27579 18.0458 2.78887C17.9706 3.30194 18.1423 3.82038 18.509 4.18711L24.6659 10.344C25.3057 10.9838 25.3057 12.0246 24.6659 12.6641C24.0262 13.3038 22.9855 13.3039 22.3458 12.6641L16.1889 6.50705C15.8221 6.14032 15.3036 5.96849 14.7906 6.04385C14.2775 6.1191 13.8303 6.43257 13.5843 6.8891C10.9325 11.8123 11.5763 18.1353 15.8117 22.3706C19.1788 25.7377 24.0234 26.9649 28.4913 25.7691L29.5603 26.838L14.4064 41.9923C11.1989 45.1998 11.1969 50.3839 14.4064 53.5935C17.6048 56.7918 22.809 56.792 26.0075 53.5935L41.1614 38.4392L42.2306 39.5084C41.0376 43.9663 42.2545 48.8134 45.629 52.188C49.8501 56.4091 56.169 57.0771 61.1106 54.4153C61.5672 54.1693 61.8805 53.7221 61.9559 53.209C62.0311 52.6959 61.8594 52.1775 61.4927 51.8108L55.3358 45.6539C54.696 45.0141 54.696 43.9733 55.3358 43.3338C55.9755 42.6941 57.0163 42.6942 57.6559 43.3338L63.8128 49.4907C64.1795 49.8574 64.698 50.0289 65.2111 49.9539C65.7242 49.8787 66.1714 49.5652 66.4174 49.1087C69.0692 44.1855 68.4255 37.8624 64.1901 33.6271C60.823 30.2601 55.9784 29.033 51.5105 30.2288ZM61.4648 3.70641L64.2934 6.53505L59.0733 15.2354L52.7644 8.92664L61.4648 3.70641ZM52.4386 13.2411L54.7587 15.5612L45.8008 24.5191L43.4807 22.199L52.4386 13.2411ZM23.6874 51.2735C21.7683 53.1926 18.6456 53.1926 16.7264 51.2735C14.8009 49.348 14.7997 46.2393 16.7264 44.3126L31.8803 29.1583L38.8412 36.1192L23.6874 51.2735ZM64.3829 45.4206L59.9761 41.0137C58.0572 39.095 54.9348 39.0949 53.0157 41.0137C51.0968 42.9326 51.0968 46.055 53.0157 47.9741L57.4225 52.3809C54.0743 53.2951 50.4756 52.3943 47.9493 49.868C45.2754 47.1942 44.3675 43.1632 45.6363 39.5985C45.8487 39.0018 45.6987 38.3361 45.2508 37.8884L30.1115 22.7491C29.6646 22.3022 28.9994 22.1507 28.4013 22.3635C24.8366 23.6324 20.8057 22.7243 18.1318 20.0506C15.6055 17.5242 14.7048 13.9256 15.6189 10.5774L20.0257 14.9842C21.9446 16.9031 25.067 16.903 26.9861 14.9842C28.905 13.0654 28.905 9.94295 26.9861 8.02386L22.5793 3.61705C25.9273 2.70268 29.5262 3.6036 32.0525 6.12993C34.7264 8.80381 35.6343 12.8348 34.3655 16.3994C34.1531 16.9962 34.3031 17.6618 34.751 18.1096L49.8902 33.2488C50.3381 33.6967 51.0038 33.8466 51.6004 33.6344C55.1649 32.3655 59.196 33.2735 61.8699 35.9473C64.3964 38.4738 65.297 42.0724 64.3829 45.4206Z" fill="#101010"/>
<path d="M33.3314 34.9967C32.6907 34.3561 31.6521 34.3561 31.0113 34.9967L20.9862 45.0221C20.3456 45.6629 20.3456 46.7015 20.9862 47.3422C21.6271 47.9829 22.6656 47.9828 23.3063 47.3422L33.3313 37.3168C33.9719 36.6761 33.9719 35.6373 33.3314 34.9967Z" fill="#101010"/>
<path d="M51.5105 30.2288L48.121 26.8392L57.0789 17.8814L58.239 19.0414C58.9902 19.7926 60.2543 19.6446 60.8058 18.7254L67.7662 7.1248C68.1536 6.47927 68.0518 5.65295 67.5194 5.12073L62.8791 0.480515C62.3469 -0.0518107 61.5205 -0.15342 60.875 0.233766L49.2744 7.19414C48.359 7.74342 48.2051 9.00757 48.9585 9.76095L50.1186 10.921L41.1606 19.8789L37.7711 16.4893C38.9641 12.0315 37.7472 7.18441 34.3727 3.80977C30.1516 -0.411215 23.8327 -1.07928 18.8911 1.58257C18.4345 1.82856 18.1212 2.27579 18.0458 2.78887C17.9706 3.30194 18.1423 3.82038 18.509 4.18711L24.6659 10.344C25.3057 10.9838 25.3057 12.0246 24.6659 12.6641C24.0262 13.3038 22.9855 13.3039 22.3458 12.6641L16.1889 6.50705C15.8221 6.14032 15.3036 5.96849 14.7906 6.04385C14.2775 6.1191 13.8303 6.43257 13.5843 6.8891C10.9325 11.8123 11.5763 18.1353 15.8117 22.3706C19.1788 25.7377 24.0234 26.9649 28.4913 25.7691L29.5603 26.838L14.4064 41.9923C11.1989 45.1998 11.1969 50.3839 14.4064 53.5935C17.6048 56.7918 22.809 56.792 26.0075 53.5935L41.1614 38.4392L42.2306 39.5084C41.0376 43.9663 42.2545 48.8134 45.629 52.188C49.8501 56.4091 56.169 57.0771 61.1106 54.4153C61.5672 54.1693 61.8805 53.7221 61.9559 53.209C62.0311 52.6959 61.8594 52.1775 61.4927 51.8108L55.3358 45.6539C54.696 45.0141 54.696 43.9733 55.3358 43.3338C55.9755 42.6941 57.0163 42.6942 57.6559 43.3338L63.8128 49.4907C64.1795 49.8574 64.698 50.0289 65.2111 49.9539C65.7242 49.8787 66.1714 49.5652 66.4174 49.1087C69.0692 44.1855 68.4255 37.8624 64.1901 33.6271C60.823 30.2601 55.9784 29.033 51.5105 30.2288ZM61.4648 3.70641L64.2934 6.53505L59.0733 15.2354L52.7644 8.92664L61.4648 3.70641ZM52.4386 13.2411L54.7587 15.5612L45.8008 24.5191L43.4807 22.199L52.4386 13.2411ZM23.6874 51.2735C21.7683 53.1926 18.6456 53.1926 16.7264 51.2735C14.8009 49.348 14.7997 46.2393 16.7264 44.3126L31.8803 29.1583L38.8412 36.1192L23.6874 51.2735ZM64.3829 45.4206L59.9761 41.0137C58.0572 39.095 54.9348 39.0949 53.0157 41.0137C51.0968 42.9326 51.0968 46.055 53.0157 47.9741L57.4225 52.3809C54.0743 53.2951 50.4756 52.3943 47.9493 49.868C45.2754 47.1942 44.3675 43.1632 45.6363 39.5985C45.8487 39.0018 45.6987 38.3361 45.2508 37.8884L30.1115 22.7491C29.6646 22.3022 28.9994 22.1507 28.4013 22.3635C24.8366 23.6324 20.8057 22.7243 18.1318 20.0506C15.6055 17.5242 14.7048 13.9256 15.6189 10.5774L20.0257 14.9842C21.9446 16.9031 25.067 16.903 26.9861 14.9842C28.905 13.0654 28.905 9.94295 26.9861 8.02386L22.5793 3.61705C25.9273 2.70268 29.5262 3.6036 32.0525 6.12993C34.7264 8.80381 35.6343 12.8348 34.3655 16.3994C34.1531 16.9962 34.3031 17.6618 34.751 18.1096L49.8902 33.2488C50.3381 33.6967 51.0038 33.8466 51.6004 33.6344C55.1649 32.3655 59.196 33.2735 61.8699 35.9473C64.3964 38.4738 65.297 42.0724 64.3829 45.4206Z" stroke="#101010" stroke-width="0.5"/>
<path d="M33.3314 34.9967C32.6907 34.3561 31.6521 34.3561 31.0113 34.9967L20.9862 45.0221C20.3456 45.6629 20.3456 46.7015 20.9862 47.3422C21.6271 47.9829 22.6656 47.9828 23.3063 47.3422L33.3313 37.3168C33.9719 36.6761 33.9719 35.6373 33.3314 34.9967Z" stroke="#101010" stroke-width="0.5"/>
</g>
<defs>
<clipPath id="clip0_447_7">
<rect width="80" height="56" fill="white"/>
</clipPath>
</defs>
</svg>
