<svg width="23" height="30" viewBox="0 0 23 30" fill="none" xmlns="http://www.w3.org/2000/svg">
<path d="M7.86526 2.59199V1.50223C7.86526 1.03367 7.49332 0.653809 7.03455 0.653809H3.55882C3.10004 0.653809 2.72811 1.03367 2.72811 1.50223V2.67542C2.99693 2.62106 3.27461 2.59194 3.55882 2.59194L7.86526 2.59199Z" fill="#101010"/>
<path d="M8.83892 14.1646H14.2951V19.7371H8.83892V14.1646Z" fill="#101010"/>
<path d="M21.3546 0.653809H12.4567C12.2363 0.653809 12.0251 0.743232 11.8693 0.902339L8.55348 4.28883H3.55882C2.12938 4.28883 0.948486 5.46887 0.948486 6.95473V28.7647C0.948486 29.2333 1.32043 29.6132 1.7792 29.6132H21.3546C21.8134 29.6132 22.1853 29.2333 22.1853 28.7647V1.50223C22.1853 1.03367 21.8135 0.653809 21.3546 0.653809ZM18.3824 22.7119C18.7068 23.0432 18.7068 23.5804 18.3824 23.9117C18.0581 24.2431 17.532 24.2431 17.2076 23.9117L14.7816 21.434H8.35184L5.92581 23.9117C5.60145 24.2431 5.07544 24.2431 4.75101 23.9117C4.42659 23.5804 4.42659 23.0432 4.75101 22.7119L7.17748 20.2337V13.6678L4.75101 11.1896C4.42659 10.8583 4.42659 10.3211 4.75101 9.98981C5.07538 9.65847 5.60139 9.65847 5.92581 9.98981L8.35212 12.4678H14.7814L17.2077 9.98981C17.5321 9.65847 18.0581 9.65847 18.3825 9.98981C18.707 10.3211 18.707 10.8583 18.3825 11.1896L15.9567 13.6672V20.2343L18.3824 22.7119ZM20.5239 4.28883H10.9031L12.8008 2.35065H20.5239V4.28883Z" fill="#101010"/>
</svg>
