<svg width="26" height="20" viewBox="0 0 26 20" fill="none" xmlns="http://www.w3.org/2000/svg">
<path fill-rule="evenodd" clip-rule="evenodd" d="M21.9696 0.0399008C21.4693 0.156305 20.2522 0.888319 19.2336 1.68526C16.3418 3.94786 13.5178 6.76563 10.741 10.159C10.2339 10.7787 9.78975 11.2923 9.75399 11.3002C9.71817 11.3082 9.56136 10.996 9.40548 10.6065C8.77928 9.0414 7.79666 7.9235 6.86999 7.72187C6.46144 7.633 5.85162 7.76067 5.22225 8.06699C4.71623 8.3132 4.45123 8.56586 4.34817 8.90021C4.25042 9.21758 4.40071 9.62516 5.00534 10.6824C5.57324 11.6754 6.01368 12.6058 6.49126 13.8217C6.94456 14.9756 7.0294 15.1165 7.37012 15.2812C8.12153 15.6442 9.7586 15.8629 10.2002 15.6592C10.4654 15.5368 10.8616 15.0705 11.9298 13.6233C13.9178 10.9298 15.3773 9.24006 17.5054 7.16799C20.2886 4.45795 22.4701 2.7555 25.1381 1.2114C25.5996 0.944335 25.6942 0.537368 25.3429 0.329735C24.9908 0.121485 22.5281 -0.090073 21.9696 0.0399008ZM1.45529 2.01087C0.900431 2.13799 0.406298 2.53705 0.152715 3.063L0 3.37969V10.9774V18.5751L0.151965 18.8902C0.357969 19.3174 0.666168 19.634 1.05764 19.821L1.38413 19.9769L9.16983 19.9922C17.8599 20.0093 17.2456 20.0361 17.8233 19.6143C18.0213 19.4696 18.1779 19.2876 18.3135 19.0445L18.5127 18.6872L18.5282 13.5146C18.5368 10.6697 18.5233 8.34202 18.4981 8.34202C18.4455 8.34202 17.7265 9.05082 17.081 9.7391L16.6383 10.2111V14.1828V18.1545H9.28517H1.93201V11.0054V3.8563L8.20383 3.85406L14.4756 3.85187L15.4561 2.95399C15.9953 2.46017 16.4451 2.03223 16.4557 2.00302C16.4806 1.93439 1.75565 1.94207 1.45529 2.01087Z" fill="#FA9100"/>
</svg>
