<svg width="24" height="25" viewBox="0 0 24 25" fill="none" xmlns="http://www.w3.org/2000/svg">
<path d="M0.69814 8.07386H3.59646C3.97006 8.07386 4.27293 7.77098 4.27293 7.39739V1.60079C4.27293 1.2272 3.97006 0.924316 3.59646 0.924316H0.69814C0.324547 0.924316 0.0216675 1.2272 0.0216675 1.60079V7.39739C0.0216675 7.77098 0.324547 8.07386 0.69814 8.07386Z" fill="#101010"/>
<path d="M17.4115 17.5415V18.4104H21.6628V17.5407C21.6628 13.8705 19.1536 10.7756 15.7602 9.88045C15.7663 10.018 15.7699 10.156 15.7699 10.295V14.4817C16.7598 15.1393 17.4115 16.264 17.4115 17.5415Z" fill="#101010"/>
<path d="M6.49474 2.3735H5.62583V6.62472H6.49474C8.52537 6.62472 10.1657 8.26837 10.1657 10.2957V16.7723C10.1657 18.4012 8.86289 19.7552 7.23412 19.7632C5.59774 19.7713 4.26482 18.4384 4.27293 16.802C4.28101 15.1732 5.63508 13.8704 7.26389 13.8704H8.81279V10.2957C8.81279 10.0604 8.77729 9.83328 8.71181 9.61915H7.21933C3.22526 9.61915 -0.00516592 12.8644 0.0218479 16.8668C0.0479146 20.7344 3.166 23.9135 7.03235 24.0121C11.0862 24.1155 14.417 20.8479 14.417 16.8169V10.295C14.417 5.9271 10.8634 2.3735 6.49474 2.3735Z" fill="#101010"/>
<path d="M22.4354 19.7633H16.6388C16.2653 19.7633 15.9624 20.0662 15.9624 20.4398V23.3381C15.9624 23.7117 16.2653 24.0146 16.6388 24.0146H22.4354C22.809 24.0146 23.1119 23.7117 23.1119 23.3381V20.4398C23.1119 20.0662 22.809 19.7633 22.4354 19.7633Z" fill="#101010"/>
</svg>
