<svg width="80" height="56" viewBox="0 0 80 56" fill="none" xmlns="http://www.w3.org/2000/svg">
<path d="M52.7162 35.0207L52.5398 35.2952L52.7732 35.5232L65.418 47.876L65.6976 47.5899L65.418 47.8761C66.9936 49.4151 66.9938 51.9046 65.4198 53.4443C64.629 54.2148 63.5942 54.6 62.5545 54.6C61.5162 54.6 60.4802 54.2147 59.691 53.4447C59.6909 53.4447 59.6909 53.4446 59.6908 53.4445L47.1966 41.2388L46.9625 41.0102L46.692 41.1943C43.1578 43.6006 38.8625 45.017 34.2236 45.017C22.1611 45.017 12.4 35.4696 12.4 23.7088C12.4 11.9483 22.1616 2.4 34.2236 2.4C46.2856 2.4 56.0481 11.9484 56.0481 23.7088C56.0481 27.867 54.8249 31.7414 52.7162 35.0207ZM18.8015 23.7097C18.8015 32.0437 25.7155 38.7837 34.2236 38.7837C42.7322 38.7837 49.6456 32.0437 49.6456 23.7097C49.6456 15.3756 42.7322 8.63513 34.2236 8.63513C25.7154 8.63513 18.8015 15.3756 18.8015 23.7097Z" fill="#101010" stroke="#F1F2F4" stroke-width="0.8"/>
</svg>
