<svg width="80" height="56" viewBox="0 0 80 56" fill="none" xmlns="http://www.w3.org/2000/svg">
<path d="M60.5162 19.4641H48.932L51.2072 12.6998C51.9125 10.5879 51.8994 8.30539 51.17 6.20152C50.4406 4.09765 49.035 2.28824 47.1683 1.05007C45.7711 0.140726 44.0718 -0.196096 42.4287 0.110616C40.7855 0.417327 39.3269 1.34361 38.3602 2.69419L25.9877 20.1792C25.5009 19.7201 24.8542 19.4641 24.1818 19.4641H13.6364C12.9372 19.4641 12.2666 19.7391 11.7722 20.2285C11.2778 20.7179 11 21.3817 11 22.0738V53.3903C11 54.0824 11.2778 54.7462 11.7722 55.2356C12.2666 55.7251 12.9372 56 13.6364 56H24.1818C24.881 56 25.5516 55.7251 26.046 55.2356C26.5404 54.7462 26.8182 54.0824 26.8182 53.3903V53.0458L30.6277 55.5616C31.0614 55.8467 31.5703 55.9992 32.0909 56H55.8182C56.3081 56.0002 56.7884 55.8653 57.2052 55.6104C57.622 55.3555 57.9587 54.9907 58.1777 54.5568L67.8215 35.4616C68.594 33.926 68.9973 32.2343 69 30.5189V27.8622C68.9972 25.6357 68.1025 23.5013 66.5121 21.9269C64.9216 20.3526 62.7654 19.4669 60.5162 19.4641ZM21.5455 50.7806H16.2727V24.6836H21.5455V50.7806ZM63.7273 30.5189C63.7255 31.4246 63.5126 32.3176 63.1051 33.1286L54.1889 50.7806H32.8818L26.8182 46.7747V28.1153L42.6812 5.68491C42.8508 5.44276 43.1099 5.27637 43.4024 5.22169C43.6949 5.167 43.9974 5.2284 44.2445 5.39262C45.1515 5.99364 45.8344 6.87239 46.1887 7.89427C46.5429 8.91616 46.549 10.0248 46.206 11.0505L42.7787 21.2492C42.6469 21.6409 42.6109 22.0579 42.6736 22.4661C42.7363 22.8743 42.8959 23.2619 43.1393 23.5971C43.3828 23.9323 43.7031 24.2056 44.0739 24.3945C44.4448 24.5833 44.8557 24.6824 45.2727 24.6836H60.5162C61.3676 24.6842 62.184 25.0194 62.786 25.6153C63.388 26.2113 63.7266 27.0194 63.7273 27.8622V30.5189Z" fill="#101010"/>
</svg>
