<svg width="80" height="56" viewBox="0 0 80 56" fill="none" xmlns="http://www.w3.org/2000/svg">
<path d="M64.4071 16.453C62.2035 11.7823 58.7135 7.86009 54.3168 5.10825C48.2014 1.29151 40.9579 0.0790052 33.9358 1.7027C26.9137 3.31585 20.9354 7.57542 17.1186 13.6906C13.2913 19.8059 12.0787 27.0387 13.7025 34.0712C15.3262 41.0931 19.5858 47.0713 25.6906 50.888C29.9925 53.5766 34.9269 55 39.9773 55H40.3042C45.3335 54.9367 50.2258 53.4817 54.4644 50.8037C55.698 50.0235 56.0565 48.3998 55.2762 47.1662C54.496 45.9326 52.8723 45.5741 51.6387 46.3543C48.2331 48.5158 44.2897 49.6861 40.2409 49.7388C36.0867 49.7915 32.0274 48.6423 28.4847 46.4387C23.5608 43.36 20.1341 38.5522 18.8372 32.9009C17.5404 27.2496 18.5104 21.4296 21.5891 16.5057C27.9364 6.35238 41.3691 3.25259 51.5227 9.59977C55.0654 11.8139 57.87 14.9664 59.6413 18.7199C61.3705 22.3785 62.0453 26.4377 61.5919 30.4442C61.4338 31.8887 62.4671 33.1961 63.9221 33.3542C65.3666 33.5124 66.674 32.4791 66.8321 31.0241C67.391 26.0371 66.5475 20.9973 64.4071 16.453Z" fill="white"/>
<path d="M48.7181 18.8464L36.0024 31.5618L31.2893 26.8489C30.2561 25.8156 28.5902 25.8156 27.5569 26.8489C26.5236 27.8822 26.5236 29.548 27.5569 30.5813L34.1361 37.1604C34.6528 37.6771 35.3276 37.9301 36.0024 37.9301C36.6772 37.9301 37.352 37.6771 37.8686 37.1604L52.44 22.5788C53.4733 21.5455 53.4733 19.8797 52.44 18.8464C51.4067 17.8237 49.7408 17.8237 48.7181 18.8464Z" fill="white"/>
</svg>
