<svg width="80" height="80" viewBox="0 0 80 80" fill="none" xmlns="http://www.w3.org/2000/svg">
<path d="M72.4769 6.66823L70.5672 5.70236C67.571 4.18691 64.0399 5.20537 62.6933 7.97264L58.4606 16.6706C57.8326 17.9635 58.3865 19.561 59.714 20.3015L58.7602 22.2613C57.3873 21.6209 55.801 22.1376 55.1669 23.4389L53.7864 26.2754C53.434 27 53.7193 27.8874 54.4399 28.2525L55.6215 28.85L52.2588 35.7526H48.0087V27.695C48.0087 27.1786 48.2884 26.678 48.7568 26.356C51.7658 24.2867 53.5625 20.8438 53.5625 17.146C53.5625 13.0635 51.3815 9.31738 47.8681 7.36906C47.2894 7.04782 46.6041 7.06366 46.0347 7.41011C45.4674 7.7544 45.1148 8.38463 45.1148 9.05448V14.7511L42.7587 16.7282C42.7134 16.7685 42.6075 16.7721 42.5312 16.7066L40.2004 14.7511V9.05448C40.2004 8.38463 39.8486 7.75512 39.282 7.41011C38.7125 7.06438 38.0286 7.04926 37.4451 7.36978C33.9338 9.31738 31.7528 13.0635 31.7528 17.146C31.7528 20.8438 33.5494 24.2867 36.5584 26.3553C37.0268 26.678 37.3066 27.1786 37.3066 27.695V35.7526H27.1813L22.5096 22.4522C22.3168 21.9015 22.3721 21.3448 22.6078 20.8899C22.8933 20.3288 23.587 20.089 24.1551 20.3512C24.4977 20.5118 24.8877 20.5276 25.2431 20.3994L27.7653 19.4825C29.1331 18.9859 29.8094 17.4483 29.3238 16.085L27.0383 9.66815C26.5798 8.29748 25.1018 7.56713 23.7227 8.04395L22.1175 8.6252C21.0705 8.9875 20.2199 9.80788 19.7133 10.9524C19.6172 11.1771 19.4081 11.3622 19.1389 11.4595C18.8839 11.5516 18.6203 11.5488 18.4423 11.4537C17.2999 10.8386 16.0776 10.7176 14.9861 11.1137L11.4423 12.4405C9.12003 13.312 7.20682 14.7475 5.90898 16.5906C3.33237 20.2561 3.92018 23.8797 4.50092 25.7164C4.75385 26.5123 5.44693 27.0828 6.26506 27.1685C7.07683 27.2592 7.84126 26.8573 8.20652 26.1983C8.59439 25.5868 9.02465 25.2108 9.61316 24.9731C10.319 24.6836 11.1993 24.7217 12.0294 25.0848C12.0852 25.1092 12.1446 25.1301 12.2067 25.1474C12.7663 25.3873 13.4424 25.8216 13.7066 26.5656L16.9299 35.7526H11.1625C8.65365 35.7526 6.53211 37.8142 6.53211 40.4877C6.53211 42.8091 8.18718 44.7335 10.3557 45.1251V66.9402C10.3557 68.8785 11.0302 70.6588 12.1518 72.0498H6.39364C5.59459 72.0498 4.94673 72.7103 4.94673 73.5249C4.94673 74.3395 5.59459 75 6.39364 75H73.6052C74.4043 75 75.0521 74.3395 75.0521 73.5249C75.0521 72.7103 74.4043 72.0498 73.6052 72.0498H67.847C68.9686 70.6588 69.6431 68.8785 69.6431 66.9402V45.1275C71.8401 44.733 73.4667 42.8019 73.4667 40.4877C73.4667 37.8767 71.3896 35.7526 68.8363 35.7526H62.0171L63.453 32.8109L64.6355 33.4089C65.3435 33.7673 66.2164 33.4785 66.5748 32.7426L67.9546 29.9069C68.5666 28.6495 68.0814 27.0461 66.7013 26.2761L67.655 24.3155C69.049 24.9659 70.6267 24.4172 71.2483 23.1386L75.476 14.4522C76.8247 11.6791 75.4795 8.188 72.4769 6.66823ZM13.1534 22.3549C13.1125 22.3391 13.0701 22.3247 13.0256 22.3124C11.5129 21.6901 9.9212 21.6649 8.53928 22.2339C7.94017 22.4752 7.40676 22.8022 6.92563 23.2322C6.7808 21.8047 7.02172 20.0724 8.26092 18.3099C9.21894 16.9486 10.6651 15.8761 12.4413 15.2092L15.9717 13.8868C16.385 13.7369 16.8491 13.9329 17.1007 14.0683C18 14.5422 19.0965 14.6049 20.1075 14.2397C21.1291 13.8695 21.9522 13.1002 22.3591 12.1473C22.4545 11.9312 22.6714 11.5488 23.0671 11.4119L24.408 10.9265L26.5028 16.8089L24.7577 17.4434C22.9215 16.9191 20.9363 17.7582 20.0425 19.525C19.6822 20.2215 19.4992 20.9821 19.4992 21.7866C19.4992 22.347 19.5953 22.9052 19.7854 23.4461L24.0703 35.6468H19.9662L16.4295 25.5673C15.9215 24.1347 14.7579 22.9938 13.1534 22.3549ZM38.177 23.91C35.9664 22.3902 34.6466 19.8614 34.6466 17.146C34.6466 14.7892 35.635 12.586 37.3066 11.0561V15.4476C37.3066 15.8884 37.5002 16.3061 37.8343 16.5863L40.683 18.9762C41.8247 19.9507 43.5287 19.9456 44.6224 18.9841L47.4809 16.5863C47.8151 16.3061 48.0087 15.8884 48.0087 15.4476V11.0568C49.681 12.5867 50.6686 14.79 50.6686 17.146C50.6686 19.8614 49.3489 22.3902 47.139 23.91C45.8715 24.7815 45.1148 26.1961 45.1148 27.695V35.7526H40.2004V27.695C40.2004 26.1968 39.4445 24.7822 38.177 23.91ZM54.0832 45.2083H60.1612V51.7426C60.1612 51.8866 60.0467 52.0033 59.9054 52.0033H54.3389C54.1976 52.0033 54.0832 51.8866 54.0832 51.7426V45.2083ZM19.8376 45.2083H25.9157V51.7426C25.9157 51.8866 25.8012 52.0033 25.6599 52.0033H20.0934C19.9521 52.0033 19.8376 51.8866 19.8376 51.7426V45.2083ZM16.9438 45.2083V51.7426C16.9438 53.513 18.3568 54.9535 20.0934 54.9535H25.6599C27.3965 54.9535 28.8095 53.513 28.8095 51.7426V45.2083H51.1893V51.7426C51.1893 53.513 52.6023 54.9535 54.3389 54.9535H59.9054C61.642 54.9535 63.055 53.513 63.055 51.7426V45.2083H66.7493V66.9402C66.7493 69.7521 64.5111 72.0404 61.7607 72.0404H18.2381C15.4877 72.0404 13.2495 69.7521 13.2495 66.9402V45.2083H16.9438ZM70.5729 40.4877C70.5729 41.5125 69.7455 42.2581 68.8363 42.2581C-32.0842 42.2467 65.3946 42.2544 11.1625 42.2581C10.2052 42.2581 9.42594 41.4636 9.42594 40.4877C9.42594 39.4576 10.2403 38.7028 11.1625 38.7028H68.8363C69.7936 38.7028 70.5729 39.5038 70.5729 40.4877ZM60.8599 31.5016L58.8365 35.6468H55.5414L58.2138 30.1611C58.359 30.2347 61.0287 31.5871 60.8599 31.5016ZM72.8831 13.1413L68.7713 21.59C67.3936 20.949 65.8098 21.4711 65.178 22.7677L63.9932 25.2029C63.3777 26.4661 63.8728 28.0681 65.2466 28.8345L64.6256 30.1101C64.4738 30.0333 56.8704 26.1885 57.0222 26.2653L57.6439 24.9868C59.0096 25.6221 60.6049 25.1085 61.2372 23.8099L62.422 21.3739C62.7463 20.7077 62.7682 19.9197 62.482 19.211C62.2334 18.5951 61.7755 18.0816 61.1694 17.7431L65.2854 9.28353C65.9234 7.9748 67.7165 7.55416 69.2814 8.34574L71.1911 9.3109C72.7645 10.1075 73.5232 11.8254 72.8831 13.1413Z" fill="url(#paint0_linear_433_13)"/>
<path d="M19.519 68.1812C20.3181 68.1812 20.9659 67.5207 20.9659 66.7061V59.5344C20.9659 58.7198 20.3181 58.0593 19.519 58.0593C18.72 58.0593 18.0721 58.7198 18.0721 59.5344V66.7061C18.0721 67.5207 18.72 68.1812 19.519 68.1812Z" fill="url(#paint1_linear_433_13)"/>
<path d="M27.7109 68.1812C28.5099 68.1812 29.1578 67.5207 29.1578 66.7061V59.5344C29.1578 58.7198 28.5099 58.0593 27.7109 58.0593C26.9118 58.0593 26.264 58.7198 26.264 59.5344V66.7061C26.264 67.5207 26.9118 68.1812 27.7109 68.1812Z" fill="url(#paint2_linear_433_13)"/>
<path d="M35.9035 68.1812C36.7025 68.1812 37.3504 67.5207 37.3504 66.7061V52.2792C37.3504 51.4645 36.7025 50.8041 35.9035 50.8041C35.1044 50.8041 34.4566 51.4645 34.4566 52.2792V66.7061C34.4566 67.5207 35.1044 68.1812 35.9035 68.1812Z" fill="url(#paint3_linear_433_13)"/>
<path d="M44.0954 68.1812C44.8944 68.1812 45.5423 67.5207 45.5423 66.7061V52.2792C45.5423 51.4645 44.8944 50.8041 44.0954 50.8041C43.2963 50.8041 42.6484 51.4645 42.6484 52.2792V66.7061C42.6484 67.5207 43.2963 68.1812 44.0954 68.1812Z" fill="url(#paint4_linear_433_13)"/>
<path d="M52.2872 68.1812C53.0863 68.1812 53.7342 67.5207 53.7342 66.7061V59.5344C53.7342 58.7198 53.0863 58.0593 52.2872 58.0593C51.4882 58.0593 50.8403 58.7198 50.8403 59.5344V66.7061C50.8403 67.5207 51.4882 68.1812 52.2872 68.1812Z" fill="url(#paint5_linear_433_13)"/>
<path d="M60.4798 68.1812C61.2789 68.1812 61.9267 67.5207 61.9267 66.7061V59.5344C61.9267 58.7198 61.2789 58.0593 60.4798 58.0593C59.6808 58.0593 59.0329 58.7198 59.0329 59.5344V66.7061C59.0329 67.5207 59.6808 68.1812 60.4798 68.1812Z" fill="url(#paint6_linear_433_13)"/>
<defs>
<linearGradient id="paint0_linear_433_13" x1="22.5473" y1="8.39552" x2="82.5919" y2="27.743" gradientUnits="userSpaceOnUse">
<stop stop-color="#FA9100"/>
<stop offset="0.747694" stop-color="#FFA933"/>
</linearGradient>
<linearGradient id="paint1_linear_433_13" x1="22.5473" y1="8.39552" x2="82.5919" y2="27.743" gradientUnits="userSpaceOnUse">
<stop stop-color="#FA9100"/>
<stop offset="0.747694" stop-color="#FFA933"/>
</linearGradient>
<linearGradient id="paint2_linear_433_13" x1="22.5473" y1="8.39552" x2="82.5919" y2="27.743" gradientUnits="userSpaceOnUse">
<stop stop-color="#FA9100"/>
<stop offset="0.747694" stop-color="#FFA933"/>
</linearGradient>
<linearGradient id="paint3_linear_433_13" x1="22.5473" y1="8.39552" x2="82.5919" y2="27.743" gradientUnits="userSpaceOnUse">
<stop stop-color="#FA9100"/>
<stop offset="0.747694" stop-color="#FFA933"/>
</linearGradient>
<linearGradient id="paint4_linear_433_13" x1="22.5473" y1="8.39552" x2="82.5919" y2="27.743" gradientUnits="userSpaceOnUse">
<stop stop-color="#FA9100"/>
<stop offset="0.747694" stop-color="#FFA933"/>
</linearGradient>
<linearGradient id="paint5_linear_433_13" x1="22.5473" y1="8.39552" x2="82.5919" y2="27.743" gradientUnits="userSpaceOnUse">
<stop stop-color="#FA9100"/>
<stop offset="0.747694" stop-color="#FFA933"/>
</linearGradient>
<linearGradient id="paint6_linear_433_13" x1="22.5473" y1="8.39552" x2="82.5919" y2="27.743" gradientUnits="userSpaceOnUse">
<stop stop-color="#FA9100"/>
<stop offset="0.747694" stop-color="#FFA933"/>
</linearGradient>
</defs>
</svg>
