<svg width="80" height="80" viewBox="0 0 80 80" fill="none" xmlns="http://www.w3.org/2000/svg">
<path d="M30.1729 18.8939C30.1729 27.6579 37.3051 34.7885 46.0718 34.7885C54.8384 34.7885 61.9706 27.6579 61.9706 18.8939C61.9706 10.13 54.8384 3 46.0718 3C37.3051 3 30.1729 10.13 30.1729 18.8939ZM59.0802 18.8939C59.0802 26.0646 53.2447 31.8984 46.0718 31.8984C38.8988 31.8984 33.0633 26.0646 33.0633 18.8939C33.0633 11.7238 38.8988 5.89006 46.0718 5.89006C53.2447 5.89006 59.0802 11.7238 59.0802 18.8939Z" fill="url(#paint0_linear_433_15)"/>
<path d="M19.6482 76.5727C20.2084 77.1373 21.1205 77.1435 21.688 76.5846L28.6955 69.6832C29.886 68.4931 30.248 66.731 29.7245 65.1993L31.2318 63.7461C32.0433 62.9625 33.1118 62.5306 34.2413 62.5306H53.4559C56.8647 62.5306 60.0866 61.2219 62.5292 58.8456C62.6297 58.7479 61.7662 59.7647 75.6376 43.191C77.695 40.7577 77.3872 37.1038 74.9509 35.0448C72.5298 33.005 68.903 33.298 66.8399 35.6895L58.311 44.4529C57.2341 43.1278 55.5918 42.3018 53.8173 42.3018H37.6999C35.4064 41.3426 32.9729 40.8571 30.462 40.8571C23.502 40.8571 17.4247 44.0707 14.1633 50.0958C12.7893 49.8355 11.3401 50.2511 10.2976 51.2933L3.42173 58.1873C2.86037 58.7502 2.85924 59.6609 3.41947 60.2254L19.6482 76.5727ZM30.4615 43.7466C32.6753 43.7466 34.8157 44.192 36.8245 45.0705C37.0075 45.1507 37.2046 45.1919 37.404 45.1919H53.8173C55.3845 45.1919 56.7083 46.4695 56.7083 48.0814C56.7083 49.6752 55.4116 50.9715 53.8173 50.9715H42.0247C41.2268 50.9715 40.5795 51.6185 40.5795 52.4162C40.5795 53.2145 41.2268 53.861 42.0247 53.861H53.8173C57.0053 53.861 59.5987 51.2684 59.5987 48.0814C59.5987 47.8273 59.5806 47.5755 59.5479 47.326C67.7983 38.8478 68.9617 37.6565 69.0114 37.5972C70.0415 36.3817 71.8702 36.2276 73.0866 37.2528C74.3042 38.2821 74.4584 40.109 73.4255 41.3313L60.4616 56.8244C58.5686 58.6412 56.0831 59.6411 53.4559 59.6411H34.2413C32.3585 59.6411 30.5761 60.3609 29.2241 61.6668L27.9958 62.8518L16.6725 51.5327C19.3189 46.5695 24.2848 43.7466 30.4615 43.7466ZM12.3431 53.3353C12.8198 52.8588 13.5517 52.773 14.1328 53.1321C14.383 53.2845 13.6646 52.6308 26.6516 65.5957C27.2294 66.1732 27.1983 67.0935 26.6596 67.6321L20.6856 73.5156L6.48381 59.2098L12.3431 53.3353Z" fill="url(#paint1_linear_433_15)"/>
<path d="M44.3374 10.2249V11.918C42.655 12.5142 41.4464 14.1205 41.4464 16.0044C41.4464 18.3943 43.3915 20.3393 45.7826 20.3393C46.5795 20.3393 47.2278 20.9874 47.2278 21.784C47.2278 22.5806 46.5795 23.2288 45.7826 23.2288C45.1653 23.2288 44.4984 22.8409 43.9059 22.1357C43.392 21.5249 42.4805 21.4464 41.8694 21.9596C41.2584 22.4734 41.1793 23.3846 41.6932 23.9955C42.4658 24.914 43.3745 25.5543 44.3374 25.8772V27.5636C44.3374 28.3619 44.9846 29.0083 45.7826 29.0083C46.5806 29.0083 47.2278 28.3619 47.2278 27.5636V25.8704C48.9102 25.2737 50.1188 23.6674 50.1188 21.784C50.1188 19.3936 48.1738 17.4492 45.7826 17.4492C44.9857 17.4492 44.3374 16.8011 44.3374 16.0044C44.3374 15.2078 44.9857 14.5591 45.7826 14.5591C46.2948 14.5591 46.8353 14.8205 47.3458 15.3145C47.9196 15.8695 48.8345 15.8543 49.3897 15.2812C49.9448 14.7076 49.9296 13.793 49.3564 13.238C48.6227 12.5284 47.8886 12.1269 47.2278 11.9079V10.2249C47.2278 9.42657 46.5806 8.77957 45.7826 8.77957C44.9846 8.77957 44.3374 9.42657 44.3374 10.2249Z" fill="url(#paint2_linear_433_15)"/>
<defs>
<linearGradient id="paint0_linear_433_15" x1="22.0625" y1="6.58955" x2="84.0947" y2="26.0222" gradientUnits="userSpaceOnUse">
<stop stop-color="#FA9100"/>
<stop offset="0.747694" stop-color="#FFA933"/>
</linearGradient>
<linearGradient id="paint1_linear_433_15" x1="22.0625" y1="6.58955" x2="84.0947" y2="26.0222" gradientUnits="userSpaceOnUse">
<stop stop-color="#FA9100"/>
<stop offset="0.747694" stop-color="#FFA933"/>
</linearGradient>
<linearGradient id="paint2_linear_433_15" x1="22.0625" y1="6.58955" x2="84.0947" y2="26.0222" gradientUnits="userSpaceOnUse">
<stop stop-color="#FA9100"/>
<stop offset="0.747694" stop-color="#FFA933"/>
</linearGradient>
</defs>
</svg>
