<svg width="80" height="80" viewBox="0 0 80 80" fill="none" xmlns="http://www.w3.org/2000/svg">
<path d="M43.5407 46.0828C42.4229 46.0828 41.3033 45.6603 40.4529 44.8153L38.978 43.3487C38.7054 43.0808 38.2759 43.0086 37.886 43.1701C37.4496 43.3487 37.1926 43.7042 37.1926 44.0923C37.1926 45.0249 36.4335 45.7805 35.4951 45.7805C34.5567 45.7805 33.7977 45.0266 33.7977 44.0923C33.7977 42.3285 34.8827 40.7468 36.5612 40.0616C38.2586 39.3643 40.1337 39.725 41.3775 40.9598L42.8507 42.4247C43.2302 42.7991 43.8477 42.8008 44.2272 42.4247L47.667 39.0037C48.0465 38.6258 48.0465 38.011 47.667 37.6349L46.192 36.17C44.9466 34.9317 44.5878 33.0632 45.2778 31.4094C45.9781 29.7109 47.5703 28.6323 49.3437 28.6323H51.4172C51.9537 28.6323 52.3918 28.1978 52.3918 27.6637C52.3918 26.7312 53.1508 25.9755 54.0892 25.9755C55.0277 25.9755 55.7867 26.7312 55.7867 27.6637C55.7867 30.0578 53.8253 32.007 51.4189 32.007H49.3454C48.9538 32.007 48.595 32.2646 48.4311 32.6614C48.2535 33.0873 48.3259 33.5132 48.595 33.7828L50.0699 35.2477C51.7725 36.9428 51.7725 39.6975 50.0699 41.3908L46.6302 44.8102C45.778 45.662 44.6602 46.0828 43.5407 46.0828Z" fill="url(#paint0_linear_433_2)"/>
<path d="M15.3571 45.3082C14.9224 45.3082 14.4894 45.1433 14.1565 44.8136L10.7168 41.3926C9.89219 40.5734 9.43678 39.4828 9.43678 38.3219C9.43678 37.1609 9.89047 36.0721 10.7168 35.2512L12.1899 33.7862C12.4608 33.5166 12.5298 33.0924 12.3693 32.7026C12.1899 32.2681 11.8311 32.0105 11.4413 32.0105H9.36778C6.95964 32.0122 5 30.0629 5 27.6689V22.8327C5 20.4387 6.95964 18.4894 9.36778 18.4894H11.4413C11.8329 18.4894 12.1917 18.2335 12.3538 17.8368C12.5315 17.4092 12.4608 16.9833 12.1899 16.7154L10.7168 15.2504C9.89219 14.4312 9.43678 13.3407 9.43678 12.1797C9.43678 11.0188 9.89047 9.92996 10.7168 9.10904L14.1565 5.688C15.8608 3.99637 18.6312 3.99637 20.3338 5.688L21.8087 7.15465C22.0813 7.42257 22.5091 7.4947 22.8989 7.33326C23.3354 7.15465 23.5941 6.79915 23.5941 6.4093V4.34328C23.5924 1.94924 25.552 0 27.9602 0H32.8248C35.2329 0 37.1926 1.94924 37.1926 4.34328V6.40587C37.1926 6.794 37.4496 7.15122 37.8498 7.31437C38.2828 7.49298 38.7071 7.42085 38.978 7.15122L40.4511 5.68457C42.1555 3.99122 44.9241 3.9895 46.6285 5.68457C47.2909 6.34404 47.2909 7.41226 46.6285 8.07002C45.9661 8.7295 44.8914 8.7295 44.229 8.07002C43.846 7.6922 43.2319 7.69391 42.8524 8.07002L41.3792 9.53667C40.1372 10.7749 38.2586 11.1321 36.5922 10.4486C34.8827 9.75135 33.7994 8.16963 33.7994 6.40587V4.34328C33.7994 3.80917 33.363 3.37467 32.8265 3.37467H27.9619C27.4254 3.37467 26.989 3.80917 26.989 4.34328V6.40587C26.989 8.16963 25.9057 9.75135 24.2272 10.4366C22.5315 11.1321 20.6547 10.7749 19.4109 9.53839L17.9343 8.07174C17.5548 7.69391 16.9372 7.69391 16.5577 8.07174L13.118 11.4911C12.9334 11.6748 12.8334 11.917 12.8334 12.1763C12.8334 12.4356 12.9351 12.6778 13.118 12.8598L14.5912 14.3265C15.8349 15.563 16.1955 17.4315 15.5072 19.0854C14.8051 20.7856 13.2146 21.8624 11.4413 21.8624H9.36778C8.8313 21.8624 8.39486 22.2969 8.39486 22.831V27.6672C8.39486 28.2013 8.83302 28.6358 9.36951 28.6358H11.443C13.2163 28.6358 14.8085 29.7143 15.4968 31.3836C16.1955 33.0684 15.8367 34.9352 14.5929 36.1734L13.1197 37.6383C12.9351 37.8221 12.8351 38.0643 12.8351 38.3236C12.8351 38.5829 12.9369 38.8251 13.1197 39.0071L16.5594 42.4282C17.2219 43.0876 17.2219 44.1558 16.5594 44.8136C16.2265 45.1451 15.7918 45.3082 15.3571 45.3082Z" fill="url(#paint1_linear_433_2)"/>
<path d="M20.4925 28.4726C19.6697 28.4726 18.9486 27.8767 18.8175 27.0438C18.7261 26.453 18.6795 25.8502 18.6795 25.2508C18.6795 18.8295 23.934 13.6035 30.3925 13.6035C31.3292 13.6035 32.0899 14.3591 32.0899 15.2917C32.0899 16.2242 31.3309 16.9798 30.3925 16.9798C25.8056 16.9798 22.0744 20.6894 22.0744 25.2525C22.0744 25.6802 22.1071 26.1095 22.1727 26.5303C22.3159 27.4508 21.6811 28.3129 20.7547 28.4555C20.6667 28.4658 20.5805 28.4726 20.4925 28.4726Z" fill="url(#paint2_linear_433_2)"/>
<path d="M34.0081 36.2301C33.3285 36.2301 32.685 35.8196 32.4263 35.1498C32.0882 34.2808 32.5229 33.3036 33.3975 32.967C36.0989 31.928 38.0878 29.522 38.5881 26.6917C38.7503 25.7746 39.6249 25.1598 40.5529 25.3212C41.4758 25.4827 42.0934 26.3568 41.9312 27.2756C41.2274 31.2634 38.426 34.6501 34.6223 36.115C34.4187 36.1923 34.2117 36.2301 34.0081 36.2301Z" fill="url(#paint3_linear_433_2)"/>
<path d="M47.7515 65.0256C40.7375 65.0256 34.1427 62.3087 29.1832 57.3763C24.2238 52.444 21.4913 45.887 21.4913 38.9109C21.4913 31.9349 24.2238 25.3779 29.1832 20.4455C34.1427 15.5132 40.7392 12.7963 47.7515 12.7963C54.7672 12.7963 61.362 15.5132 66.3215 20.4455C76.5595 30.6262 76.5595 47.1939 66.3215 57.3746C61.362 62.307 54.7672 65.0256 47.7515 65.0256ZM47.7515 16.1727C41.6449 16.1727 35.9005 18.5375 31.5827 22.8327C27.265 27.1279 24.8844 32.8382 24.8844 38.9109C24.8844 44.9836 27.2633 50.694 31.5827 54.9892C35.9022 59.2844 41.6449 61.6509 47.7515 61.6509C53.8598 61.6509 59.6025 59.2844 63.9219 54.9892C68.2414 50.694 70.6185 44.9836 70.6185 38.9109C70.6185 32.8382 68.2397 27.1279 63.9219 22.8327C59.6042 18.5375 53.8615 16.1727 47.7515 16.1727Z" fill="url(#paint4_linear_433_2)"/>
<path d="M47.7515 59.949C42.1003 59.949 36.7872 57.7593 32.792 53.7853C28.7968 49.8112 26.5957 44.5302 26.5957 38.9092C26.5957 33.2899 28.7968 28.0072 32.792 24.0332C36.7872 20.0591 42.1003 17.8712 47.7515 17.8712C53.4027 17.8712 58.7158 20.0591 62.7127 24.0332C66.7079 28.0072 68.9107 33.2899 68.9107 38.9092C68.9107 44.5302 66.7079 49.8112 62.7127 53.7853C58.7175 57.7593 53.4044 59.949 47.7515 59.949ZM47.7515 21.2493C43.0059 21.2493 38.5467 23.0852 35.1915 26.4221C31.8363 29.759 29.9888 34.1933 29.9888 38.9109C29.9888 43.6286 31.8363 48.0646 35.1915 51.3998C38.5467 54.7367 43.0059 56.5743 47.7515 56.5743C52.497 56.5743 56.958 54.7367 60.3114 51.3998C63.6666 48.0646 65.5159 43.6286 65.5159 38.9109C65.5159 34.1933 63.6684 29.759 60.3114 26.4221C56.958 23.0852 52.497 21.2493 47.7515 21.2493Z" fill="url(#paint5_linear_433_2)"/>
<path d="M26.6853 53.188L29.0865 55.5751L25.8289 58.8228L23.4278 56.4357L26.6853 53.188Z" fill="url(#paint6_linear_433_2)"/>
<path d="M31.0249 57.5072L33.426 59.8943L30.1697 63.1408L27.7686 60.7537L31.0249 57.5072Z" fill="url(#paint7_linear_433_2)"/>
<path d="M13.9495 79C12.2106 79 10.5736 78.3268 9.34536 77.104C8.11541 75.8812 7.43747 74.2566 7.43747 72.5254C7.43747 70.7943 8.11541 69.1697 9.34536 67.9469L23.3992 53.9725L32.6074 63.1279L18.5536 77.1023C17.3236 78.3268 15.6883 79 13.9495 79ZM23.3975 58.7451L11.7449 70.334C11.1549 70.9197 10.8323 71.6994 10.8323 72.5254C10.8323 73.3515 11.1566 74.1329 11.7449 74.7168C12.9231 75.8915 14.9759 75.8915 16.1541 74.7168L27.8067 63.1279L23.3975 58.7451Z" fill="url(#paint8_linear_433_2)"/>
<defs>
<linearGradient id="paint0_linear_433_2" x1="22.7745" y1="3.83208" x2="81.8677" y2="20.0008" gradientUnits="userSpaceOnUse">
<stop stop-color="#FA9100"/>
<stop offset="0.747694" stop-color="#FFA933"/>
</linearGradient>
<linearGradient id="paint1_linear_433_2" x1="22.7745" y1="3.83208" x2="81.8677" y2="20.0008" gradientUnits="userSpaceOnUse">
<stop stop-color="#FA9100"/>
<stop offset="0.747694" stop-color="#FFA933"/>
</linearGradient>
<linearGradient id="paint2_linear_433_2" x1="22.7745" y1="3.83208" x2="81.8677" y2="20.0008" gradientUnits="userSpaceOnUse">
<stop stop-color="#FA9100"/>
<stop offset="0.747694" stop-color="#FFA933"/>
</linearGradient>
<linearGradient id="paint3_linear_433_2" x1="22.7745" y1="3.83208" x2="81.8677" y2="20.0008" gradientUnits="userSpaceOnUse">
<stop stop-color="#FA9100"/>
<stop offset="0.747694" stop-color="#FFA933"/>
</linearGradient>
<linearGradient id="paint4_linear_433_2" x1="22.7745" y1="3.83208" x2="81.8677" y2="20.0008" gradientUnits="userSpaceOnUse">
<stop stop-color="#FA9100"/>
<stop offset="0.747694" stop-color="#FFA933"/>
</linearGradient>
<linearGradient id="paint5_linear_433_2" x1="22.7745" y1="3.83208" x2="81.8677" y2="20.0008" gradientUnits="userSpaceOnUse">
<stop stop-color="#FA9100"/>
<stop offset="0.747694" stop-color="#FFA933"/>
</linearGradient>
<linearGradient id="paint6_linear_433_2" x1="22.7745" y1="3.83208" x2="81.8677" y2="20.0008" gradientUnits="userSpaceOnUse">
<stop stop-color="#FA9100"/>
<stop offset="0.747694" stop-color="#FFA933"/>
</linearGradient>
<linearGradient id="paint7_linear_433_2" x1="22.7745" y1="3.83208" x2="81.8677" y2="20.0008" gradientUnits="userSpaceOnUse">
<stop stop-color="#FA9100"/>
<stop offset="0.747694" stop-color="#FFA933"/>
</linearGradient>
<linearGradient id="paint8_linear_433_2" x1="22.7745" y1="3.83208" x2="81.8677" y2="20.0008" gradientUnits="userSpaceOnUse">
<stop stop-color="#FA9100"/>
<stop offset="0.747694" stop-color="#FFA933"/>
</linearGradient>
</defs>
</svg>
