<svg width="80" height="80" viewBox="0 0 80 80" fill="none" xmlns="http://www.w3.org/2000/svg">
<path d="M39.9994 15.4997C26.4682 15.4997 15.4985 26.4688 15.4985 40.0003C15.4985 53.5318 26.4682 64.5009 39.9994 64.5009C53.5311 64.5009 64.5008 53.5318 64.5008 40.0003C64.4848 26.4752 53.5247 15.5152 39.9994 15.4997ZM39.9994 61.0007C28.401 61.0007 18.9988 51.5985 18.9988 40.0003C18.9988 28.4021 28.401 19 39.9994 19C51.5978 19 61.0006 28.4021 61.0006 40.0003C60.9877 51.5932 51.5929 60.9884 39.9994 61.0007Z" fill="url(#paint0_linear_433_9)"/>
<path d="M52.5126 34.5032L44.9732 33.3502L41.5824 26.1313C41.0878 25.257 39.9786 24.9494 39.1043 25.444C38.817 25.6063 38.5798 25.844 38.417 26.1313L35.0267 33.3502L27.4862 34.5038C26.5318 34.6469 25.8744 35.5366 26.0175 36.491C26.0725 36.8552 26.2407 37.1928 26.4987 37.4555L32.0049 43.1L30.7029 51.0933C30.5475 52.0477 31.1947 52.947 32.1486 53.1024C32.5358 53.1655 32.9331 53.0966 33.2765 52.9064L39.9999 49.1894L46.7233 52.9064C47.5693 53.3737 48.6342 53.0672 49.1021 52.2212C49.2916 51.8778 49.3605 51.4805 49.2975 51.0933L47.9955 43.1L53.5017 37.455C54.1773 36.7666 54.1672 35.6605 53.4782 34.9844C53.2154 34.7265 52.8779 34.5582 52.5137 34.5038H52.5126V34.5032ZM44.8738 41.2885C44.4856 41.6853 44.3088 42.2439 44.399 42.7924L45.2637 48.101L40.8475 45.6587C40.3198 45.3671 39.6795 45.3671 39.1524 45.6587L34.7362 48.101L35.6008 42.7924C35.6911 42.2439 35.5143 41.6858 35.1255 41.2885L31.3795 37.448L36.4756 36.6689C37.0529 36.5818 37.548 36.2117 37.7953 35.683L39.9999 30.9918L42.2051 35.683C42.4518 36.2117 42.9469 36.5818 43.5242 36.6689L48.6209 37.448L44.8738 41.2885Z" fill="url(#paint1_linear_433_9)"/>
<path d="M71.887 41.2575C71.3983 40.4911 71.3983 39.5106 71.887 38.7437L74.0783 35.3273C75.8145 32.6159 75.0246 29.0099 72.3127 27.2737C72.1626 27.1775 72.0077 27.0878 71.8496 27.0061L68.2447 25.1433C67.4398 24.7235 66.9495 23.8765 66.9864 22.9691L67.1781 18.914C67.2529 17.2755 66.635 15.6813 65.4755 14.5213C64.307 13.3768 62.7203 12.7627 61.086 12.822L57.0319 13.0099C56.1245 13.0532 55.2748 12.5635 54.8577 11.7565L52.9949 8.15106C51.5139 5.29116 47.9955 4.17337 45.1355 5.65433C44.9769 5.73657 44.8226 5.82576 44.6725 5.92189L41.2577 8.1094C40.4913 8.60021 39.5091 8.60127 38.7417 8.11101L35.3268 5.92189C32.6159 4.18512 29.0099 4.975 27.2731 7.68589C27.1759 7.83757 27.0862 7.99298 27.0039 8.15266L25.1416 11.7565C24.7117 12.5512 23.8705 13.0361 22.9674 13.011L18.9133 12.8225C17.2791 12.76 15.6913 13.3747 14.5249 14.5208C13.3654 15.6813 12.7475 17.276 12.8223 18.9151L13.014 22.9659C13.0514 23.8738 12.5616 24.7219 11.7557 25.1422L8.15078 27.0056C5.29138 28.4865 4.17358 32.006 5.65455 34.8659C5.73679 35.0239 5.82598 35.1783 5.92212 35.3284L8.1134 38.741C8.60207 39.5079 8.60207 40.4885 8.1134 41.2548L5.92105 44.6728C4.18479 47.3843 4.97521 50.9902 7.68668 52.7265C7.83728 52.8226 7.99163 52.9123 8.14971 52.994L11.7557 54.8563C12.5606 55.2761 13.0503 56.1231 13.014 57.0299L12.8223 61.0851C12.6733 64.3006 15.1594 67.0276 18.3744 67.176C18.5539 67.1846 18.7333 67.1846 18.9128 67.176L22.9664 66.9886C23.8716 66.956 24.716 67.4431 25.1406 68.2425L27.0034 71.8485C28.4838 74.7084 32.0023 75.8267 34.8622 74.3458C35.0213 74.2635 35.1762 74.1738 35.3274 74.0772L38.7422 71.8896C39.5086 71.3988 40.4907 71.3978 41.2582 71.888L44.6725 74.0772C47.3834 75.8139 50.9895 75.0246 52.7262 72.3137C52.8229 72.162 52.9132 72.0066 52.9954 71.8469L54.8582 68.242C55.3004 67.4591 56.1336 66.9784 57.0324 66.9875L61.086 67.1755C64.3016 67.324 67.028 64.8379 67.1765 61.6229C67.1851 61.4429 67.1851 61.2624 67.1765 61.0829L66.9864 57.0331C66.9485 56.1247 67.4382 55.2766 68.2441 54.8558L71.8491 52.9924C74.709 51.5115 75.8268 47.9925 74.3453 45.1327C74.2636 44.9746 74.1739 44.8197 74.0777 44.6696L71.887 41.2575ZM68.9405 43.1459L71.1318 46.5586C71.8256 47.6438 71.5083 49.0852 70.4231 49.7784C70.3649 49.8158 70.3046 49.8505 70.2431 49.8826L66.6371 51.7454C64.6183 52.7954 63.3921 54.9209 63.4925 57.1939L63.6837 61.2458C63.7158 61.9016 63.4669 62.5398 63.0001 63.0013C62.5461 63.4755 61.9053 63.7238 61.25 63.6801L57.1964 63.4915C54.9266 63.4055 52.8085 64.628 51.7478 66.6361L49.8845 70.2394C49.5865 70.8242 49.0529 71.2541 48.4184 71.4202C47.7856 71.59 47.1105 71.4854 46.5588 71.1313L43.1445 68.9422C41.2262 67.7186 38.7726 67.7186 36.8548 68.9422L33.4405 71.1313C32.8888 71.4843 32.2138 71.5895 31.5809 71.4202C30.9464 71.2541 30.4134 70.8253 30.1149 70.241L28.2515 66.6361C27.2053 64.6141 25.0775 63.3863 22.8029 63.4915L18.7494 63.6795C18.093 63.7319 17.4484 63.4819 16.9992 63.0013C16.5324 62.5398 16.2841 61.9027 16.3156 61.2474L16.5068 57.1901C16.6067 54.9183 15.3799 52.7943 13.3622 51.7454L9.75619 49.8831C8.61382 49.2892 8.16947 47.8825 8.76336 46.7407C8.7954 46.6793 8.83012 46.6189 8.8675 46.5607L11.0588 43.1443C12.2818 41.226 12.2818 38.772 11.0588 36.8536L8.8675 33.441C8.17375 32.3558 8.49152 30.9143 9.57621 30.2206C9.63442 30.1832 9.69477 30.1485 9.75619 30.1165L13.3622 28.2537C15.381 27.2037 16.6077 25.0787 16.5068 22.8052L16.3156 18.7532C16.2841 18.0979 16.5324 17.4597 16.9992 16.9978C17.4468 16.5145 18.0925 16.264 18.7494 16.3195L22.8035 16.5075C25.0759 16.6063 27.2005 15.3796 28.252 13.3624L30.1149 9.75912C30.705 8.61623 32.1096 8.16815 33.2525 8.75882C33.3166 8.79193 33.3791 8.82772 33.44 8.8667L36.8548 11.0558C38.7726 12.2799 41.2262 12.2799 43.144 11.0558L46.5588 8.8667C47.6424 8.17296 49.0834 8.48912 49.7771 9.57273C49.8156 9.63255 49.8514 9.69396 49.8839 9.75752L51.7468 13.3624C52.7887 15.3887 54.9197 16.6186 57.1953 16.507L61.2494 16.319C61.9047 16.2731 62.5467 16.5214 62.9996 16.9972C63.4658 17.4581 63.7147 18.0958 63.6832 18.7506L63.492 22.8084C63.3921 25.0803 64.6189 27.2042 66.6366 28.2531L70.2426 30.1159C71.3844 30.7098 71.8288 32.1165 71.2354 33.2583C71.2034 33.3198 71.1687 33.3801 71.1313 33.4389L68.94 36.8547C67.7159 38.7736 67.7165 41.2276 68.9405 43.1459Z" fill="url(#paint2_linear_433_9)"/>
<defs>
<linearGradient id="paint0_linear_433_9" x1="23.0321" y1="8.39552" x2="81.7112" y2="26.7778" gradientUnits="userSpaceOnUse">
<stop stop-color="#FA9100"/>
<stop offset="0.747694" stop-color="#FFA933"/>
</linearGradient>
<linearGradient id="paint1_linear_433_9" x1="23.0321" y1="8.39552" x2="81.7112" y2="26.7778" gradientUnits="userSpaceOnUse">
<stop stop-color="#FA9100"/>
<stop offset="0.747694" stop-color="#FFA933"/>
</linearGradient>
<linearGradient id="paint2_linear_433_9" x1="23.0321" y1="8.39552" x2="81.7112" y2="26.7778" gradientUnits="userSpaceOnUse">
<stop stop-color="#FA9100"/>
<stop offset="0.747694" stop-color="#FFA933"/>
</linearGradient>
</defs>
</svg>
