<svg width="80" height="80" viewBox="0 0 80 80" fill="none" xmlns="http://www.w3.org/2000/svg">
<path d="M68.7594 15.9581L68.7593 15.9582L68.7638 15.9625C75.5605 22.4825 75.5434 34.2346 68.7244 40.7322L61.4034 47.6555L61.3135 47.7406L61.38 47.845C63.9119 51.8228 61.0519 57.1359 56.3224 57.1869L56.1763 57.1885L56.174 57.3346C56.1232 60.6518 53.1932 63.5197 49.8783 63.5028L49.7298 63.502L49.7275 63.6505C49.7032 65.2585 49.0807 66.8581 47.8569 68.0819C45.3596 70.579 41.2959 70.5791 38.7987 68.0821L34.8258 64.109L34.7197 64.0029L34.6137 64.109L33.7256 64.9969L33.7256 64.9968L33.7235 64.9991C31.3121 67.5122 26.9655 67.5124 24.554 64.9991L24.5518 64.9969L24.493 64.9381C23.3077 63.7528 22.6397 62.19 22.5972 60.5204L22.5934 60.3733L22.4463 60.3742C20.7032 60.3852 19.0597 59.7073 17.8271 58.4751L17.7683 58.4163C16.5594 57.2073 15.8878 55.6058 15.87 53.8987L15.8685 53.7518L15.7216 53.7503C14.0145 53.7325 12.4129 53.061 11.2039 51.852L11.1451 51.7932L11.1451 51.7932L11.1429 51.7911C8.62973 49.3797 8.62961 45.033 11.1429 42.6216L11.1429 42.6216L11.1451 42.6194L11.8206 41.9438L11.9266 41.8378L11.8205 41.7317L11.4748 41.386L11.4749 41.386L11.4726 41.3838C4.37573 34.5747 4.37586 22.3134 11.4726 15.5043L11.4726 15.5043L11.4748 15.5021C18.6109 8.36596 30.2227 8.36596 37.3587 15.5021L37.4648 15.3961L37.3587 15.5021L40.7719 18.9153L40.8765 19.0199L40.9825 18.9169L44.0347 15.9515L44.0348 15.9516L44.0383 15.9479C50.547 9.17571 62.2559 9.17993 68.7594 15.9581ZM21.4325 45.5783L21.4325 45.5782C22.5223 44.4878 22.5222 42.7142 21.4319 41.624L21.3259 41.73L21.4319 41.624L21.3738 41.5658C20.2831 40.4751 18.5092 40.4743 17.4183 41.565L17.5244 41.6711L17.4183 41.5651L13.7567 45.2268C13.7563 45.2272 13.756 45.2276 13.7556 45.2279C12.669 46.2719 12.6689 48.1407 13.7555 49.1847C13.7559 49.1851 13.7563 49.1855 13.7567 49.1859L13.8111 49.2403C13.8115 49.2407 13.8119 49.2411 13.8123 49.2415C14.8561 50.328 16.7251 50.328 17.769 49.2415C17.7694 49.2411 17.7698 49.2407 17.7702 49.2403L21.4325 45.5783ZM51.7013 55.1879L51.7014 55.1878L51.697 55.1834L47.9601 51.4466C47.2395 50.726 47.2395 49.5575 47.9601 48.8371C48.6808 48.1165 49.8492 48.1166 50.5697 48.837L54.5281 52.7955C55.4643 53.7318 56.9867 53.7318 57.9232 52.7965C58.8564 51.8996 58.8565 50.2954 57.923 49.3986C57.9226 49.3982 57.9222 49.3978 57.9218 49.3974L44.2278 35.7034L44.2277 35.7033C44.0998 35.5756 43.8918 35.5755 43.7639 35.7034L41.5578 37.9095C38.8241 40.6432 34.3755 40.6432 31.6416 37.9095L31.6394 37.9073C28.89 35.2722 28.9289 30.5042 31.7215 27.9145L31.7215 27.9145L31.724 27.9121L38.12 21.6981L38.2292 21.5921L38.1215 21.4844L34.7489 18.1119C29.0516 12.4146 19.7817 12.4147 14.0841 18.1119L14.1902 18.218L14.0841 18.1119C8.3867 23.8094 8.3867 33.0793 14.0841 38.7767L14.4297 39.1223L14.5358 39.2284L14.6418 39.1223L14.8085 38.9556C14.8085 38.9556 14.8085 38.9556 14.8085 38.9556C17.3379 36.4268 21.4533 36.4266 23.9824 38.9556L24.0405 39.0138C24.829 39.8024 25.3714 40.7445 25.6685 41.7448L25.7162 41.9055L25.8706 41.8403C28.2278 40.8449 31.1361 41.4112 32.9292 43.2525L32.9306 43.2539L32.9887 43.3121L32.9908 43.3141C35.2191 45.4593 35.5155 49.2067 33.6775 51.6754L33.5585 51.8351L33.7449 51.9053C34.5967 52.2262 35.3785 52.7263 36.0417 53.3895L36.0998 53.4477L36.1016 53.4494C38.1188 55.4022 38.5823 58.6925 37.2182 61.1284L37.1627 61.2275L37.243 61.3078L41.408 65.4728L41.5141 65.3667L41.408 65.4728C42.4666 66.5311 44.1886 66.5315 45.2472 65.4727C46.3059 64.4142 46.3058 62.692 45.2472 61.6334C45.2483 61.6344 45.2485 61.6348 45.2454 61.6313L45.2447 61.6304C45.2422 61.6275 45.2369 61.6213 45.231 61.6152L45.2311 61.6152L45.2289 61.6131L41.531 57.9152C40.8104 57.1946 40.8104 56.0261 41.531 55.3057C42.2517 54.5851 43.4201 54.5852 44.1406 55.3056L47.8577 59.0228L47.8576 59.0229L47.8622 59.0271C50.5069 61.4624 54.138 57.8358 51.7013 55.1879ZM66.1682 38.0703L66.1684 38.0705L66.1757 38.0627C78.5505 24.5696 60.0745 6.1512 46.6193 18.5859L46.6193 18.5859L46.6166 18.5885L34.2957 30.5592C34.2953 30.5596 34.2948 30.56 34.2944 30.5604C32.9651 31.7944 32.946 34.0453 34.2527 35.3005C35.5478 36.5946 37.6539 36.5943 38.9486 35.2997L38.8426 35.1936L38.9486 35.2997L41.1547 33.0936L41.1547 33.0936L41.1569 33.0914C42.6494 31.5358 45.343 31.5358 46.8354 33.0914L46.8354 33.0914L46.8376 33.0936L58.6877 44.9436L58.7908 45.0468L58.8968 44.9466L66.1682 38.0703ZM20.4343 55.8634C20.4347 55.8638 20.435 55.8642 20.4354 55.8646C21.4793 56.9512 23.3482 56.9513 24.3921 55.8647C24.3925 55.8643 24.3929 55.8638 24.3933 55.8634L30.3779 49.8793C30.3783 49.8789 30.3787 49.8785 30.3791 49.8781C31.4655 48.8341 31.4656 46.9652 30.379 45.9212C30.3786 45.9208 30.3783 45.9205 30.3779 45.9201L30.3241 45.8664C30.3238 45.866 30.3235 45.8657 30.3231 45.8653C29.2784 44.7777 27.41 44.7775 26.3654 45.8644C26.3651 45.8648 26.3647 45.8652 26.3643 45.8655L20.3799 51.8499C20.3795 51.8503 20.3791 51.8506 20.3787 51.851C19.2923 52.895 19.2921 54.7639 20.3787 55.8079C20.3791 55.8083 20.3795 55.8086 20.3799 55.809L20.4343 55.8634ZM31.1169 62.3864C31.1173 62.386 31.1176 62.3856 31.118 62.3853L33.4889 60.0146C33.4893 60.0142 33.4896 60.0139 33.49 60.0135C34.5767 58.9695 34.5768 57.1004 33.49 56.0566C33.4896 56.0563 33.4892 56.0559 33.4889 56.0556L33.4351 56.0018C33.4348 56.0015 33.4344 56.0011 33.4341 56.0007C32.3893 54.9131 30.521 54.913 29.4764 55.9999C29.476 56.0003 29.4757 56.0007 29.4753 56.001L27.1044 58.3717C27.104 58.372 27.1036 58.3724 27.1033 58.3728C26.0169 59.4165 26.0166 61.2854 27.103 62.3293C27.1034 62.3297 27.1038 62.3301 27.1041 62.3304L27.1582 62.3844C27.1585 62.3848 27.1589 62.3852 27.1592 62.3855C28.204 63.4731 30.0723 63.4733 31.1169 62.3864Z" fill="url(#paint0_linear_433_11)" stroke="#F1F2F4" stroke-width="0.3"/>
<defs>
<linearGradient id="paint0_linear_433_11" x1="23.5169" y1="12.9155" x2="79.1281" y2="32.6251" gradientUnits="userSpaceOnUse">
<stop stop-color="#FA9100"/>
<stop offset="0.747694" stop-color="#FFA933"/>
</linearGradient>
</defs>
</svg>
